<svg xmlns="http://www.w3.org/2000/svg" xmlns:xlink="http://www.w3.org/1999/xlink" width="540" height="1907.0600000000002"><rect width="540" height="1907.0600000000002" rx="0" ry="0" class="a"></rect><svg height="1867.0600000000002" viewBox="0 0 50 186.70600000000002" width="500" x="20" xmlns="http://www.w3.org/2000/svg" xmlns:xlink="http://www.w3.org/1999/xlink" y="20"><style>.a{fill:rgb(40,45,53)}.b{font-family:'Fira Code',Monaco,Consolas,Menlo,'Bitstream Vera Sans Mono','Powerline Symbols',monospace}.c{fill:transparent}.d{fill:rgb(148,148,148);white-space:pre}.e{fill:rgb(148,148,148);font-weight:bold;white-space:pre}.f{fill:rgb(185,192,203);white-space:pre}.g{fill:rgb(148,148,148);font-style:italic;white-space:pre}.h{fill:rgb(188,188,188);white-space:pre}</style><g font-family="&#x27;Fira Code&#x27;,Monaco,Consolas,Menlo,&#x27;Bitstream Vera Sans Mono&#x27;,&#x27;Powerline Symbols&#x27;,monospace" font-size="1.67" class="b"><defs><symbol id="a"><rect height="86" width="50" x="0" y="0" class="c"></rect></symbol></defs><rect height="186.70600000000002" width="50" class="a"></rect><svg x="0" y="0" width="50"><svg x="0"><use xlink:href="#a"></use><text font-size="1.67" x="0" y="1.67" class="d">#</text><text font-size="1.67" x="2.004" y="1.67" class="e">Steinauer</text><text font-size="1.67" x="12.024" y="1.67" class="e">et</text><text font-size="1.67" x="15.029999999999998" y="1.67" class="e">al.</text><text font-size="1.67" x="19.037999999999997" y="1.67" class="e">2015</text><text font-size="1.67" x="0" y="3.8409999999999997" class="d">#</text><text font-size="1.67" x="2.004" y="3.8409999999999997" class="d">An</text><text font-size="1.67" x="5.01" y="3.8409999999999997" class="d">edibble:</text><text font-size="1.67" x="14.027999999999999" y="3.8409999999999997" class="d">81</text><text font-size="1.67" x="17.034" y="3.8409999999999997" class="d">x</text><text font-size="1.67" x="19.037999999999997" y="3.8409999999999997" class="d">4</text><text font-size="1.67" x="3.006" y="6.012" class="f">diversity</text><text font-size="1.67" x="19.037999999999997" y="6.012" class="f">plot</text><text font-size="1.67" x="27.054" y="6.012" class="f">subplot</text><text font-size="1.67" x="39.077999999999996" y="6.012" class="f">heat</text><text font-size="1.67" x="4.008" y="8.183" class="g">&lt;trt(3)&gt;</text><text font-size="1.67" x="13.026" y="8.183" class="g">&lt;unit(27)&gt;</text><text font-size="1.67" x="24.048" y="8.183" class="g">&lt;unit(81)&gt;</text><text font-size="1.67" x="35.06999999999999" y="8.183" class="g">&lt;trt(3)&gt;</text><text font-size="1.67" x="1.002" y="12.525" class="h">1</text><text font-size="1.67" x="10.02" y="12.525" class="f">16</text><text font-size="1.67" x="17.034" y="12.525" class="f">plot1</text><text font-size="1.67" x="25.05" y="12.525" class="f">subplot01</text><text font-size="1.67" x="40.08" y="12.525" class="f">1.5</text><text font-size="1.67" x="1.002" y="14.696" class="h">2</text><text font-size="1.67" x="10.02" y="14.696" class="f">16</text><text font-size="1.67" x="17.034" y="14.696" class="f">plot1</text><text font-size="1.67" x="25.05" y="14.696" class="f">subplot02</text><text font-size="1.67" x="40.08" y="14.696" class="f">3.0</text><text font-size="1.67" x="1.002" y="16.866999999999997" class="h">3</text><text font-size="1.67" x="10.02" y="16.866999999999997" class="f">16</text><text font-size="1.67" x="17.034" y="16.866999999999997" class="f">plot1</text><text font-size="1.67" x="25.05" y="16.866999999999997" class="f">subplot03</text><text font-size="1.67" x="40.08" y="16.866999999999997" class="f">0.0</text><text font-size="1.67" x="1.002" y="19.037999999999997" class="h">4</text><text font-size="1.67" x="11.021999999999998" y="19.037999999999997" class="f">4</text><text font-size="1.67" x="17.034" y="19.037999999999997" class="f">plot2</text><text font-size="1.67" x="25.05" y="19.037999999999997" class="f">subplot04</text><text font-size="1.67" x="40.08" y="19.037999999999997" class="f">1.5</text><text font-size="1.67" x="1.002" y="21.209000000000003" class="h">5</text><text font-size="1.67" x="11.021999999999998" y="21.209000000000003" class="f">4</text><text font-size="1.67" x="17.034" y="21.209000000000003" class="f">plot2</text><text font-size="1.67" x="25.05" y="21.209000000000003" class="f">subplot05</text><text font-size="1.67" x="40.08" y="21.209000000000003" class="f">0.0</text><text font-size="1.67" x="1.002" y="23.380000000000003" class="h">6</text><text font-size="1.67" x="11.021999999999998" y="23.380000000000003" class="f">4</text><text font-size="1.67" x="17.034" y="23.380000000000003" class="f">plot2</text><text font-size="1.67" x="25.05" y="23.380000000000003" class="f">subplot06</text><text font-size="1.67" x="40.08" y="23.380000000000003" class="f">3.0</text><text font-size="1.67" x="1.002" y="25.550999999999995" class="h">7</text><text font-size="1.67" x="11.021999999999998" y="25.550999999999995" class="f">1</text><text font-size="1.67" x="17.034" y="25.550999999999995" class="f">plot3</text><text font-size="1.67" x="25.05" y="25.550999999999995" class="f">subplot07</text><text font-size="1.67" x="40.08" y="25.550999999999995" class="f">1.5</text><text font-size="1.67" x="1.002" y="27.722" class="h">8</text><text font-size="1.67" x="11.021999999999998" y="27.722" class="f">1</text><text font-size="1.67" x="17.034" y="27.722" class="f">plot3</text><text font-size="1.67" x="25.05" y="27.722" class="f">subplot08</text><text font-size="1.67" x="40.08" y="27.722" class="f">0.0</text><text font-size="1.67" x="1.002" y="29.893" class="h">9</text><text font-size="1.67" x="11.021999999999998" y="29.893" class="f">1</text><text font-size="1.67" x="17.034" y="29.893" class="f">plot3</text><text font-size="1.67" x="25.05" y="29.893" class="f">subplot09</text><text font-size="1.67" x="40.08" y="29.893" class="f">3.0</text><text font-size="1.67" x="0" y="32.064" class="h">10</text><text font-size="1.67" x="10.02" y="32.064" class="f">16</text><text font-size="1.67" x="17.034" y="32.064" class="f">plot4</text><text font-size="1.67" x="25.05" y="32.064" class="f">subplot10</text><text font-size="1.67" x="40.08" y="32.064" class="f">3.0</text><text font-size="1.67" x="0" y="34.235" class="h">11</text><text font-size="1.67" x="10.02" y="34.235" class="f">16</text><text font-size="1.67" x="17.034" y="34.235" class="f">plot4</text><text font-size="1.67" x="25.05" y="34.235" class="f">subplot11</text><text font-size="1.67" x="40.08" y="34.235" class="f">1.5</text><text font-size="1.67" x="0" y="36.406" class="h">12</text><text font-size="1.67" x="10.02" y="36.406" class="f">16</text><text font-size="1.67" x="17.034" y="36.406" class="f">plot4</text><text font-size="1.67" x="25.05" y="36.406" class="f">subplot12</text><text font-size="1.67" x="40.08" y="36.406" class="f">0.0</text><text font-size="1.67" x="0" y="38.577000000000005" class="h">13</text><text font-size="1.67" x="11.021999999999998" y="38.577000000000005" class="f">4</text><text font-size="1.67" x="17.034" y="38.577000000000005" class="f">plot5</text><text font-size="1.67" x="25.05" y="38.577000000000005" class="f">subplot13</text><text font-size="1.67" x="40.08" y="38.577000000000005" class="f">3.0</text><text font-size="1.67" x="0" y="40.748000000000005" class="h">14</text><text font-size="1.67" x="11.021999999999998" y="40.748000000000005" class="f">4</text><text font-size="1.67" x="17.034" y="40.748000000000005" class="f">plot5</text><text font-size="1.67" x="25.05" y="40.748000000000005" class="f">subplot14</text><text font-size="1.67" x="40.08" y="40.748000000000005" class="f">0.0</text><text font-size="1.67" x="0" y="42.919" class="h">15</text><text font-size="1.67" x="11.021999999999998" y="42.919" class="f">4</text><text font-size="1.67" x="17.034" y="42.919" class="f">plot5</text><text font-size="1.67" x="25.05" y="42.919" class="f">subplot15</text><text font-size="1.67" x="40.08" y="42.919" class="f">1.5</text><text font-size="1.67" x="0" y="45.09" class="h">16</text><text font-size="1.67" x="11.021999999999998" y="45.09" class="f">4</text><text font-size="1.67" x="17.034" y="45.09" class="f">plot6</text><text font-size="1.67" x="25.05" y="45.09" class="f">subplot16</text><text font-size="1.67" x="40.08" y="45.09" class="f">1.5</text><text font-size="1.67" x="0" y="47.261" class="h">17</text><text font-size="1.67" x="11.021999999999998" y="47.261" class="f">4</text><text font-size="1.67" x="17.034" y="47.261" class="f">plot6</text><text font-size="1.67" x="25.05" y="47.261" class="f">subplot17</text><text font-size="1.67" x="40.08" y="47.261" class="f">0.0</text><text font-size="1.67" x="0" y="49.431999999999995" class="h">18</text><text font-size="1.67" x="11.021999999999998" y="49.431999999999995" class="f">4</text><text font-size="1.67" x="17.034" y="49.431999999999995" class="f">plot6</text><text font-size="1.67" x="25.05" y="49.431999999999995" class="f">subplot18</text><text font-size="1.67" x="40.08" y="49.431999999999995" class="f">3.0</text><text font-size="1.67" x="0" y="51.603" class="h">19</text><text font-size="1.67" x="11.021999999999998" y="51.603" class="f">1</text><text font-size="1.67" x="17.034" y="51.603" class="f">plot7</text><text font-size="1.67" x="25.05" y="51.603" class="f">subplot19</text><text font-size="1.67" x="40.08" y="51.603" class="f">1.5</text><text font-size="1.67" x="0" y="53.774" class="h">20</text><text font-size="1.67" x="11.021999999999998" y="53.774" class="f">1</text><text font-size="1.67" x="17.034" y="53.774" class="f">plot7</text><text font-size="1.67" x="25.05" y="53.774" class="f">subplot20</text><text font-size="1.67" x="40.08" y="53.774" class="f">3.0</text><text font-size="1.67" x="0" y="55.945" class="h">21</text><text font-size="1.67" x="11.021999999999998" y="55.945" class="f">1</text><text font-size="1.67" x="17.034" y="55.945" class="f">plot7</text><text font-size="1.67" x="25.05" y="55.945" class="f">subplot21</text><text font-size="1.67" x="40.08" y="55.945" class="f">0.0</text><text font-size="1.67" x="0" y="58.11600000000001" class="h">22</text><text font-size="1.67" x="11.021999999999998" y="58.11600000000001" class="f">1</text><text font-size="1.67" x="17.034" y="58.11600000000001" class="f">plot8</text><text font-size="1.67" x="25.05" y="58.11600000000001" class="f">subplot22</text><text font-size="1.67" x="40.08" y="58.11600000000001" class="f">3.0</text><text font-size="1.67" x="0" y="60.287" class="h">23</text><text font-size="1.67" x="11.021999999999998" y="60.287" class="f">1</text><text font-size="1.67" x="17.034" y="60.287" class="f">plot8</text><text font-size="1.67" x="25.05" y="60.287" class="f">subplot23</text><text font-size="1.67" x="40.08" y="60.287" class="f">0.0</text><text font-size="1.67" x="0" y="62.458" class="h">24</text><text font-size="1.67" x="11.021999999999998" y="62.458" class="f">1</text><text font-size="1.67" x="17.034" y="62.458" class="f">plot8</text><text font-size="1.67" x="25.05" y="62.458" class="f">subplot24</text><text font-size="1.67" x="40.08" y="62.458" class="f">1.5</text><text font-size="1.67" x="0" y="64.629" class="h">25</text><text font-size="1.67" x="11.021999999999998" y="64.629" class="f">4</text><text font-size="1.67" x="17.034" y="64.629" class="f">plot9</text><text font-size="1.67" x="25.05" y="64.629" class="f">subplot25</text><text font-size="1.67" x="40.08" y="64.629" class="f">1.5</text><text font-size="1.67" x="0" y="66.8" class="h">26</text><text font-size="1.67" x="11.021999999999998" y="66.8" class="f">4</text><text font-size="1.67" x="17.034" y="66.8" class="f">plot9</text><text font-size="1.67" x="25.05" y="66.8" class="f">subplot26</text><text font-size="1.67" x="40.08" y="66.8" class="f">0.0</text><text font-size="1.67" x="0" y="68.971" class="h">27</text><text font-size="1.67" x="11.021999999999998" y="68.971" class="f">4</text><text font-size="1.67" x="17.034" y="68.971" class="f">plot9</text><text font-size="1.67" x="25.05" y="68.971" class="f">subplot27</text><text font-size="1.67" x="40.08" y="68.971" class="f">3.0</text><text font-size="1.67" x="0" y="71.142" class="h">28</text><text font-size="1.67" x="11.021999999999998" y="71.142" class="f">4</text><text font-size="1.67" x="17.034" y="71.142" class="f">plot10</text><text font-size="1.67" x="25.05" y="71.142" class="f">subplot28</text><text font-size="1.67" x="40.08" y="71.142" class="f">3.0</text><text font-size="1.67" x="0" y="73.313" class="h">29</text><text font-size="1.67" x="11.021999999999998" y="73.313" class="f">4</text><text font-size="1.67" x="17.034" y="73.313" class="f">plot10</text><text font-size="1.67" x="25.05" y="73.313" class="f">subplot29</text><text font-size="1.67" x="40.08" y="73.313" class="f">0.0</text><text font-size="1.67" x="0" y="75.48400000000001" class="h">30</text><text font-size="1.67" x="11.021999999999998" y="75.48400000000001" class="f">4</text><text font-size="1.67" x="17.034" y="75.48400000000001" class="f">plot10</text><text font-size="1.67" x="25.05" y="75.48400000000001" class="f">subplot30</text><text font-size="1.67" x="40.08" y="75.48400000000001" class="f">1.5</text><text font-size="1.67" x="0" y="77.655" class="h">31</text><text font-size="1.67" x="11.021999999999998" y="77.655" class="f">4</text><text font-size="1.67" x="17.034" y="77.655" class="f">plot11</text><text font-size="1.67" x="25.05" y="77.655" class="f">subplot31</text><text font-size="1.67" x="40.08" y="77.655" class="f">0.0</text><text font-size="1.67" x="0" y="79.82600000000001" class="h">32</text><text font-size="1.67" x="11.021999999999998" y="79.82600000000001" class="f">4</text><text font-size="1.67" x="17.034" y="79.82600000000001" class="f">plot11</text><text font-size="1.67" x="25.05" y="79.82600000000001" class="f">subplot32</text><text font-size="1.67" x="40.08" y="79.82600000000001" class="f">1.5</text><text font-size="1.67" x="0" y="81.997" class="h">33</text><text font-size="1.67" x="11.021999999999998" y="81.997" class="f">4</text><text font-size="1.67" x="17.034" y="81.997" class="f">plot11</text><text font-size="1.67" x="25.05" y="81.997" class="f">subplot33</text><text font-size="1.67" x="40.08" y="81.997" class="f">3.0</text><text font-size="1.67" x="0" y="84.16799999999999" class="h">34</text><text font-size="1.67" x="10.02" y="84.16799999999999" class="f">16</text><text font-size="1.67" x="17.034" y="84.16799999999999" class="f">plot12</text><text font-size="1.67" x="25.05" y="84.16799999999999" class="f">subplot34</text><text font-size="1.67" x="40.08" y="84.16799999999999" class="f">1.5</text><text font-size="1.67" x="0" y="86.339" class="h">35</text><text font-size="1.67" x="10.02" y="86.339" class="f">16</text><text font-size="1.67" x="17.034" y="86.339" class="f">plot12</text><text font-size="1.67" x="25.05" y="86.339" class="f">subplot35</text><text font-size="1.67" x="40.08" y="86.339" class="f">3.0</text><text font-size="1.67" x="0" y="88.51" class="h">36</text><text font-size="1.67" x="10.02" y="88.51" class="f">16</text><text font-size="1.67" x="17.034" y="88.51" class="f">plot12</text><text font-size="1.67" x="25.05" y="88.51" class="f">subplot36</text><text font-size="1.67" x="40.08" y="88.51" class="f">0.0</text><text font-size="1.67" x="0" y="90.681" class="h">37</text><text font-size="1.67" x="11.021999999999998" y="90.681" class="f">4</text><text font-size="1.67" x="17.034" y="90.681" class="f">plot13</text><text font-size="1.67" x="25.05" y="90.681" class="f">subplot37</text><text font-size="1.67" x="40.08" y="90.681" class="f">0.0</text><text font-size="1.67" x="0" y="92.852" class="h">38</text><text font-size="1.67" x="11.021999999999998" y="92.852" class="f">4</text><text font-size="1.67" x="17.034" y="92.852" class="f">plot13</text><text font-size="1.67" x="25.05" y="92.852" class="f">subplot38</text><text font-size="1.67" x="40.08" y="92.852" class="f">3.0</text><text font-size="1.67" x="0" y="95.02300000000001" class="h">39</text><text font-size="1.67" x="11.021999999999998" y="95.02300000000001" class="f">4</text><text font-size="1.67" x="17.034" y="95.02300000000001" class="f">plot13</text><text font-size="1.67" x="25.05" y="95.02300000000001" class="f">subplot39</text><text font-size="1.67" x="40.08" y="95.02300000000001" class="f">1.5</text><text font-size="1.67" x="0" y="97.19399999999999" class="h">40</text><text font-size="1.67" x="10.02" y="97.19399999999999" class="f">16</text><text font-size="1.67" x="17.034" y="97.19399999999999" class="f">plot14</text><text font-size="1.67" x="25.05" y="97.19399999999999" class="f">subplot40</text><text font-size="1.67" x="40.08" y="97.19399999999999" class="f">3.0</text><text font-size="1.67" x="0" y="99.365" class="h">41</text><text font-size="1.67" x="10.02" y="99.365" class="f">16</text><text font-size="1.67" x="17.034" y="99.365" class="f">plot14</text><text font-size="1.67" x="25.05" y="99.365" class="f">subplot41</text><text font-size="1.67" x="40.08" y="99.365" class="f">0.0</text><text font-size="1.67" x="0" y="101.536" class="h">42</text><text font-size="1.67" x="10.02" y="101.536" class="f">16</text><text font-size="1.67" x="17.034" y="101.536" class="f">plot14</text><text font-size="1.67" x="25.05" y="101.536" class="f">subplot42</text><text font-size="1.67" x="40.08" y="101.536" class="f">1.5</text><text font-size="1.67" x="0" y="103.707" class="h">43</text><text font-size="1.67" x="11.021999999999998" y="103.707" class="f">1</text><text font-size="1.67" x="17.034" y="103.707" class="f">plot15</text><text font-size="1.67" x="25.05" y="103.707" class="f">subplot43</text><text font-size="1.67" x="40.08" y="103.707" class="f">3.0</text><text font-size="1.67" x="0" y="105.878" class="h">44</text><text font-size="1.67" x="11.021999999999998" y="105.878" class="f">1</text><text font-size="1.67" x="17.034" y="105.878" class="f">plot15</text><text font-size="1.67" x="25.05" y="105.878" class="f">subplot44</text><text font-size="1.67" x="40.08" y="105.878" class="f">1.5</text><text font-size="1.67" x="0" y="108.049" class="h">45</text><text font-size="1.67" x="11.021999999999998" y="108.049" class="f">1</text><text font-size="1.67" x="17.034" y="108.049" class="f">plot15</text><text font-size="1.67" x="25.05" y="108.049" class="f">subplot45</text><text font-size="1.67" x="40.08" y="108.049" class="f">0.0</text><text font-size="1.67" x="0" y="110.22" class="h">46</text><text font-size="1.67" x="11.021999999999998" y="110.22" class="f">1</text><text font-size="1.67" x="17.034" y="110.22" class="f">plot16</text><text font-size="1.67" x="25.05" y="110.22" class="f">subplot46</text><text font-size="1.67" x="40.08" y="110.22" class="f">3.0</text><text font-size="1.67" x="0" y="112.391" class="h">47</text><text font-size="1.67" x="11.021999999999998" y="112.391" class="f">1</text><text font-size="1.67" x="17.034" y="112.391" class="f">plot16</text><text font-size="1.67" x="25.05" y="112.391" class="f">subplot47</text><text font-size="1.67" x="40.08" y="112.391" class="f">0.0</text><text font-size="1.67" x="0" y="114.56200000000001" class="h">48</text><text font-size="1.67" x="11.021999999999998" y="114.56200000000001" class="f">1</text><text font-size="1.67" x="17.034" y="114.56200000000001" class="f">plot16</text><text font-size="1.67" x="25.05" y="114.56200000000001" class="f">subplot48</text><text font-size="1.67" x="40.08" y="114.56200000000001" class="f">1.5</text><text font-size="1.67" x="0" y="116.73299999999999" class="h">49</text><text font-size="1.67" x="10.02" y="116.73299999999999" class="f">16</text><text font-size="1.67" x="17.034" y="116.73299999999999" class="f">plot17</text><text font-size="1.67" x="25.05" y="116.73299999999999" class="f">subplot49</text><text font-size="1.67" x="40.08" y="116.73299999999999" class="f">0.0</text><text font-size="1.67" x="0" y="118.904" class="h">50</text><text font-size="1.67" x="10.02" y="118.904" class="f">16</text><text font-size="1.67" x="17.034" y="118.904" class="f">plot17</text><text font-size="1.67" x="25.05" y="118.904" class="f">subplot50</text><text font-size="1.67" x="40.08" y="118.904" class="f">1.5</text><text font-size="1.67" x="0" y="121.075" class="h">51</text><text font-size="1.67" x="10.02" y="121.075" class="f">16</text><text font-size="1.67" x="17.034" y="121.075" class="f">plot17</text><text font-size="1.67" x="25.05" y="121.075" class="f">subplot51</text><text font-size="1.67" x="40.08" y="121.075" class="f">3.0</text><text font-size="1.67" x="0" y="123.246" class="h">52</text><text font-size="1.67" x="11.021999999999998" y="123.246" class="f">1</text><text font-size="1.67" x="17.034" y="123.246" class="f">plot18</text><text font-size="1.67" x="25.05" y="123.246" class="f">subplot52</text><text font-size="1.67" x="40.08" y="123.246" class="f">1.5</text><text font-size="1.67" x="0" y="125.417" class="h">53</text><text font-size="1.67" x="11.021999999999998" y="125.417" class="f">1</text><text font-size="1.67" x="17.034" y="125.417" class="f">plot18</text><text font-size="1.67" x="25.05" y="125.417" class="f">subplot53</text><text font-size="1.67" x="40.08" y="125.417" class="f">3.0</text><text font-size="1.67" x="0" y="127.58800000000001" class="h">54</text><text font-size="1.67" x="11.021999999999998" y="127.58800000000001" class="f">1</text><text font-size="1.67" x="17.034" y="127.58800000000001" class="f">plot18</text><text font-size="1.67" x="25.05" y="127.58800000000001" class="f">subplot54</text><text font-size="1.67" x="40.08" y="127.58800000000001" class="f">0.0</text><text font-size="1.67" x="0" y="129.759" class="h">55</text><text font-size="1.67" x="10.02" y="129.759" class="f">16</text><text font-size="1.67" x="17.034" y="129.759" class="f">plot19</text><text font-size="1.67" x="25.05" y="129.759" class="f">subplot55</text><text font-size="1.67" x="40.08" y="129.759" class="f">1.5</text><text font-size="1.67" x="0" y="131.92999999999998" class="h">56</text><text font-size="1.67" x="10.02" y="131.92999999999998" class="f">16</text><text font-size="1.67" x="17.034" y="131.92999999999998" class="f">plot19</text><text font-size="1.67" x="25.05" y="131.92999999999998" class="f">subplot56</text><text font-size="1.67" x="40.08" y="131.92999999999998" class="f">0.0</text><text font-size="1.67" x="0" y="134.10099999999997" class="h">57</text><text font-size="1.67" x="10.02" y="134.10099999999997" class="f">16</text><text font-size="1.67" x="17.034" y="134.10099999999997" class="f">plot19</text><text font-size="1.67" x="25.05" y="134.10099999999997" class="f">subplot57</text><text font-size="1.67" x="40.08" y="134.10099999999997" class="f">3.0</text><text font-size="1.67" x="0" y="136.272" class="h">58</text><text font-size="1.67" x="11.021999999999998" y="136.272" class="f">1</text><text font-size="1.67" x="17.034" y="136.272" class="f">plot20</text><text font-size="1.67" x="25.05" y="136.272" class="f">subplot58</text><text font-size="1.67" x="40.08" y="136.272" class="f">1.5</text><text font-size="1.67" x="0" y="138.44299999999998" class="h">59</text><text font-size="1.67" x="11.021999999999998" y="138.44299999999998" class="f">1</text><text font-size="1.67" x="17.034" y="138.44299999999998" class="f">plot20</text><text font-size="1.67" x="25.05" y="138.44299999999998" class="f">subplot59</text><text font-size="1.67" x="40.08" y="138.44299999999998" class="f">0.0</text><text font-size="1.67" x="0" y="140.61399999999998" class="h">60</text><text font-size="1.67" x="11.021999999999998" y="140.61399999999998" class="f">1</text><text font-size="1.67" x="17.034" y="140.61399999999998" class="f">plot20</text><text font-size="1.67" x="25.05" y="140.61399999999998" class="f">subplot60</text><text font-size="1.67" x="40.08" y="140.61399999999998" class="f">3.0</text><text font-size="1.67" x="0" y="142.785" class="h">61</text><text font-size="1.67" x="10.02" y="142.785" class="f">16</text><text font-size="1.67" x="17.034" y="142.785" class="f">plot21</text><text font-size="1.67" x="25.05" y="142.785" class="f">subplot61</text><text font-size="1.67" x="40.08" y="142.785" class="f">3.0</text><text font-size="1.67" x="0" y="144.956" class="h">62</text><text font-size="1.67" x="10.02" y="144.956" class="f">16</text><text font-size="1.67" x="17.034" y="144.956" class="f">plot21</text><text font-size="1.67" x="25.05" y="144.956" class="f">subplot62</text><text font-size="1.67" x="40.08" y="144.956" class="f">1.5</text><text font-size="1.67" x="0" y="147.12699999999998" class="h">63</text><text font-size="1.67" x="10.02" y="147.12699999999998" class="f">16</text><text font-size="1.67" x="17.034" y="147.12699999999998" class="f">plot21</text><text font-size="1.67" x="25.05" y="147.12699999999998" class="f">subplot63</text><text font-size="1.67" x="40.08" y="147.12699999999998" class="f">0.0</text><text font-size="1.67" x="0" y="149.298" class="h">64</text><text font-size="1.67" x="10.02" y="149.298" class="f">16</text><text font-size="1.67" x="17.034" y="149.298" class="f">plot22</text><text font-size="1.67" x="25.05" y="149.298" class="f">subplot64</text><text font-size="1.67" x="40.08" y="149.298" class="f">3.0</text><text font-size="1.67" x="0" y="151.46899999999997" class="h">65</text><text font-size="1.67" x="10.02" y="151.46899999999997" class="f">16</text><text font-size="1.67" x="17.034" y="151.46899999999997" class="f">plot22</text><text font-size="1.67" x="25.05" y="151.46899999999997" class="f">subplot65</text><text font-size="1.67" x="40.08" y="151.46899999999997" class="f">1.5</text><text font-size="1.67" x="0" y="153.64" class="h">66</text><text font-size="1.67" x="10.02" y="153.64" class="f">16</text><text font-size="1.67" x="17.034" y="153.64" class="f">plot22</text><text font-size="1.67" x="25.05" y="153.64" class="f">subplot66</text><text font-size="1.67" x="40.08" y="153.64" class="f">0.0</text><text font-size="1.67" x="0" y="155.81099999999998" class="h">67</text><text font-size="1.67" x="11.021999999999998" y="155.81099999999998" class="f">1</text><text font-size="1.67" x="17.034" y="155.81099999999998" class="f">plot23</text><text font-size="1.67" x="25.05" y="155.81099999999998" class="f">subplot67</text><text font-size="1.67" x="40.08" y="155.81099999999998" class="f">3.0</text><text font-size="1.67" x="0" y="157.982" class="h">68</text><text font-size="1.67" x="11.021999999999998" y="157.982" class="f">1</text><text font-size="1.67" x="17.034" y="157.982" class="f">plot23</text><text font-size="1.67" x="25.05" y="157.982" class="f">subplot68</text><text font-size="1.67" x="40.08" y="157.982" class="f">0.0</text><text font-size="1.67" x="0" y="160.153" class="h">69</text><text font-size="1.67" x="11.021999999999998" y="160.153" class="f">1</text><text font-size="1.67" x="17.034" y="160.153" class="f">plot23</text><text font-size="1.67" x="25.05" y="160.153" class="f">subplot69</text><text font-size="1.67" x="40.08" y="160.153" class="f">1.5</text><text font-size="1.67" x="0" y="162.32399999999998" class="h">70</text><text font-size="1.67" x="10.02" y="162.32399999999998" class="f">16</text><text font-size="1.67" x="17.034" y="162.32399999999998" class="f">plot24</text><text font-size="1.67" x="25.05" y="162.32399999999998" class="f">subplot70</text><text font-size="1.67" x="40.08" y="162.32399999999998" class="f">0.0</text><text font-size="1.67" x="0" y="164.495" class="h">71</text><text font-size="1.67" x="10.02" y="164.495" class="f">16</text><text font-size="1.67" x="17.034" y="164.495" class="f">plot24</text><text font-size="1.67" x="25.05" y="164.495" class="f">subplot71</text><text font-size="1.67" x="40.08" y="164.495" class="f">1.5</text><text font-size="1.67" x="0" y="166.66599999999997" class="h">72</text><text font-size="1.67" x="10.02" y="166.66599999999997" class="f">16</text><text font-size="1.67" x="17.034" y="166.66599999999997" class="f">plot24</text><text font-size="1.67" x="25.05" y="166.66599999999997" class="f">subplot72</text><text font-size="1.67" x="40.08" y="166.66599999999997" class="f">3.0</text><text font-size="1.67" x="0" y="168.837" class="h">73</text><text font-size="1.67" x="11.021999999999998" y="168.837" class="f">4</text><text font-size="1.67" x="17.034" y="168.837" class="f">plot25</text><text font-size="1.67" x="25.05" y="168.837" class="f">subplot73</text><text font-size="1.67" x="40.08" y="168.837" class="f">1.5</text><text font-size="1.67" x="0" y="171.00799999999998" class="h">74</text><text font-size="1.67" x="11.021999999999998" y="171.00799999999998" class="f">4</text><text font-size="1.67" x="17.034" y="171.00799999999998" class="f">plot25</text><text font-size="1.67" x="25.05" y="171.00799999999998" class="f">subplot74</text><text font-size="1.67" x="40.08" y="171.00799999999998" class="f">3.0</text><text font-size="1.67" x="0" y="173.179" class="h">75</text><text font-size="1.67" x="11.021999999999998" y="173.179" class="f">4</text><text font-size="1.67" x="17.034" y="173.179" class="f">plot25</text><text font-size="1.67" x="25.05" y="173.179" class="f">subplot75</text><text font-size="1.67" x="40.08" y="173.179" class="f">0.0</text><text font-size="1.67" x="0" y="175.35" class="h">76</text><text font-size="1.67" x="11.021999999999998" y="175.35" class="f">4</text><text font-size="1.67" x="17.034" y="175.35" class="f">plot26</text><text font-size="1.67" x="25.05" y="175.35" class="f">subplot76</text><text font-size="1.67" x="40.08" y="175.35" class="f">3.0</text><text font-size="1.67" x="0" y="177.52099999999996" class="h">77</text><text font-size="1.67" x="11.021999999999998" y="177.52099999999996" class="f">4</text><text font-size="1.67" x="17.034" y="177.52099999999996" class="f">plot26</text><text font-size="1.67" x="25.05" y="177.52099999999996" class="f">subplot77</text><text font-size="1.67" x="40.08" y="177.52099999999996" class="f">0.0</text><text font-size="1.67" x="0" y="179.69199999999998" class="h">78</text><text font-size="1.67" x="11.021999999999998" y="179.69199999999998" class="f">4</text><text font-size="1.67" x="17.034" y="179.69199999999998" class="f">plot26</text><text font-size="1.67" x="25.05" y="179.69199999999998" class="f">subplot78</text><text font-size="1.67" x="40.08" y="179.69199999999998" class="f">1.5</text><text font-size="1.67" x="0" y="181.86299999999997" class="h">79</text><text font-size="1.67" x="11.021999999999998" y="181.86299999999997" class="f">1</text><text font-size="1.67" x="17.034" y="181.86299999999997" class="f">plot27</text><text font-size="1.67" x="25.05" y="181.86299999999997" class="f">subplot79</text><text font-size="1.67" x="40.08" y="181.86299999999997" class="f">0.0</text><text font-size="1.67" x="0" y="184.034" class="h">80</text><text font-size="1.67" x="11.021999999999998" y="184.034" class="f">1</text><text font-size="1.67" x="17.034" y="184.034" class="f">plot27</text><text font-size="1.67" x="25.05" y="184.034" class="f">subplot80</text><text font-size="1.67" x="40.08" y="184.034" class="f">3.0</text><text font-size="1.67" x="0" y="186.20499999999998" class="h">81</text><text font-size="1.67" x="11.021999999999998" y="186.20499999999998" class="f">1</text><text font-size="1.67" x="17.034" y="186.20499999999998" class="f">plot27</text><text font-size="1.67" x="25.05" y="186.20499999999998" class="f">subplot81</text><text font-size="1.67" x="40.08" y="186.20499999999998" class="f">1.5</text></svg></svg></g></svg></svg>